<?xml version="1.0" encoding="UTF-8"?>
<svg xmlns="http://www.w3.org/2000/svg" xmlns:xlink="http://www.w3.org/1999/xlink" width="150px" height="150px" viewBox="0 0 150 150" version="1.1">
<g id="surface1">
<path style=" stroke:none;fill-rule:nonzero;fill:rgb(0%,62.7451%,81.960785%);fill-opacity:1;" d="M 25 0 L 125 0 C 138.808594 0 150 11.191406 150 25 L 150 125 C 150 138.808594 138.808594 150 125 150 L 25 150 C 11.191406 150 0 138.808594 0 125 L 0 25 C 0 11.191406 11.191406 0 25 0 Z M 25 0 "/>
<path style=" stroke:none;fill-rule:nonzero;fill:rgb(100%,100%,100%);fill-opacity:1;" d="M 121.777344 82.417969 C 125.6875 82.417969 128.875 85.605469 128.875 89.515625 C 128.875 93.425781 125.6875 96.613281 121.777344 96.613281 C 117.867188 96.613281 114.679688 93.425781 114.679688 89.515625 C 114.679688 85.605469 117.867188 82.417969 121.777344 82.417969 Z M 121.777344 82.417969 "/>
<path style=" stroke:none;fill-rule:nonzero;fill:rgb(100%,100%,100%);fill-opacity:1;" d="M 84.707031 30.46875 C 98.070312 25.964844 109.5625 29.121094 117.449219 37.277344 C 124.945312 45.039062 128.5 56.585938 128.5 68.074219 C 128.5 71.746094 125.523438 74.726562 121.847656 74.726562 C 118.175781 74.726562 115.195312 71.746094 115.195312 68.074219 C 115.195312 58.988281 112.339844 51.140625 107.878906 46.523438 C 105.851562 44.429688 103.332031 42.8125 100.203125 42.105469 C 97.070312 41.394531 93.359375 41.59375 88.957031 43.078125 C 84.175781 44.691406 78.78125 48.324219 73.015625 53.753906 C 67.316406 59.125 61.605469 65.917969 56.144531 73.335938 C 45.230469 88.175781 35.707031 105.003906 29.636719 116.667969 C 27.941406 119.925781 23.925781 121.195312 20.664062 119.5 C 17.40625 117.804688 16.136719 113.785156 17.835938 110.527344 C 24.0625 98.554688 33.941406 81.066406 45.425781 65.453125 C 51.171875 57.644531 57.410156 50.175781 63.894531 44.066406 C 70.316406 38.019531 77.34375 32.953125 84.707031 30.46875 Z M 84.707031 30.46875 "/>
</g>
</svg>
