<?xml version="1.0" encoding="UTF-8"?>
<svg id="logosandtypes_com" data-name="logosandtypes com" xmlns="http://www.w3.org/2000/svg" xmlns:xlink="http://www.w3.org/1999/xlink" viewBox="0 0 150 150">
  <defs>
    <style>
      .cls-1 {
        fill: url(#radial-gradient-4);
      }

      .cls-1, .cls-2, .cls-3, .cls-4, .cls-5, .cls-6, .cls-7, .cls-8 {
        isolation: isolate;
      }

      .cls-2 {
        fill: url(#radial-gradient-7);
      }

      .cls-3 {
        fill: url(#radial-gradient-2);
      }

      .cls-9 {
        fill: #d97871;
      }

      .cls-4 {
        fill: url(#radial-gradient-5);
      }

      .cls-5 {
        fill: url(#radial-gradient-6);
      }

      .cls-6 {
        fill: #972424;
      }

      .cls-7 {
        fill: url(#radial-gradient-3);
      }

      .cls-10 {
        fill: none;
      }

      .cls-11 {
        fill: #e02b2b;
      }

      .cls-8 {
        fill: url(#radial-gradient);
      }
    </style>
    <radialGradient id="radial-gradient" cx="77.24" cy="41.63" fx="77.24" fy="41.63" r="41.3" gradientUnits="userSpaceOnUse">
      <stop offset="0" stop-color="#6c272d"/>
      <stop offset="1" stop-color="#c66966"/>
    </radialGradient>
    <radialGradient id="radial-gradient-2" cx="50.2" cy="111.31" fx="50.2" fy="111.31" r="32.36" gradientUnits="userSpaceOnUse">
      <stop offset="0" stop-color="#964a46"/>
      <stop offset="1" stop-color="#f38982"/>
    </radialGradient>
    <radialGradient id="radial-gradient-3" cx="96.64" cy="99.9" fx="96.64" fy="99.9" r="37.99" xlink:href="#radial-gradient-2"/>
    <radialGradient id="radial-gradient-4" cx="46.05" cy="61.11" fx="46.05" fy="61.11" r="66.45" gradientUnits="userSpaceOnUse">
      <stop offset="0" stop-color="#682325"/>
      <stop offset="1" stop-color="#d22"/>
    </radialGradient>
    <radialGradient id="radial-gradient-5" cx="76.14" cy="75.96" fx="76.14" fy="75.96" r="60.17" gradientUnits="userSpaceOnUse">
      <stop offset="0" stop-color="#752425"/>
      <stop offset=".71" stop-color="#c82223"/>
    </radialGradient>
    <radialGradient id="radial-gradient-6" cx="51.27" cy="111.69" fx="51.27" fy="111.69" r="21.03" gradientUnits="userSpaceOnUse">
      <stop offset="0" stop-color="#71282b"/>
      <stop offset="1" stop-color="#bd2c32"/>
    </radialGradient>
    <radialGradient id="radial-gradient-7" cx="105.03" cy="127.18" fx="105.03" fy="127.18" r="13.77" gradientUnits="userSpaceOnUse">
      <stop offset="0" stop-color="#90292e"/>
      <stop offset="1" stop-color="#bd2c32"/>
    </radialGradient>
  </defs>
  <path class="cls-10" d="M0,0H150V150H0V0Z"/>
  <path class="cls-8" d="M74.67,31.09h.01c-1.72,3.06-34.08,64.58-34.08,64.58,5.65-3.43,13.52-9.55,21.28-13.84,2.35-6.47,6.59-16.6,12.08-32.16,1.01-2.87,2.88-3.13,4.05-.34,.82,1.96,3.89,10.27,7.34,19.82,3.59-1.85,6.83-2.29,10-4.07-3.57-7.98-16.18-31.66-17.52-33.64-.82-1.2-1.16-2.18-1.65-2.18-.35,0-.78,.52-1.52,1.83"/>
  <path class="cls-3" d="M52.79,109.55c-5.82,.99-18.69,3.3-18.69,3.3-1.68,4.39-6.47,20.11-8.13,25.88l14.64,1.01c1.59-4.35,12.18-30.18,12.18-30.18Z"/>
  <path class="cls-7" d="M97.45,103.16v.02c5.16,13.75,9.83,28.24,13.99,36.21h.02l15.13-1.21,.08-.04c-2.33-9.33-10.99-28.22-14.61-36.48-4.38,.37-8.82,.86-14.6,1.49"/>
  <path class="cls-1" d="M61.74,13.21c-7.94,14.79-14.78,30.06-20.53,45.83-4.9,13.88-12.42,36.45-16.87,53.56,12.17-33.29,28.46-68.2,46.03-99.39h-8.63Z"/>
  <path class="cls-11" d="M124.11,101c-1.69-6.19-3.58-12.96-5.56-19.74-2.24-7.67-5.72-15.34-8.01-22.14-1.71-5.09-3.77-9.69-5.34-13.45-4.41-11.22-9.65-22.04-15.74-32.45h-8.04c10.76,19.68,37.63,74.58,46.98,103.73-1.17-4.37-2.64-9.87-4.3-15.94"/>
  <path class="cls-4" d="M39.87,101.8c1.46-3.92,3.73-8.54,3.89-8.83-.09,.17-2.68,5.62-3.89,8.83,0,.01-.01,.03-.01,.04,0-.01,0-.03,.01-.04M77.85,31.44c1.18,1.97,12.32,24.98,15.92,33.04-3.55,1.8-42.01,22.18-50.02,28.51,3.84-6.98,29.24-58.72,30.93-61.89h0c.78-1.46,1.83-1.87,3.17,.35m-8.51-18.23c-17.55,31.18-32.84,66.11-44.99,99.39-2.54,9.21-5.15,19.53-5.7,22.99l7.14,3.12h.19c3.94-12.31,9.49-25.39,13.86-36.83,20.16-8.07,40.04-12.87,61.29-17.36,3.98,8.57,8.3,13.95,10.21,18.26,3.43,7.61,13.22,26.7,15.33,35.38l6.96-2.22c-1.42-6.05-2.81-9.69-5.22-19-9.3-29.04-35.12-84.17-45.82-103.73h-13.24Z"/>
  <path class="cls-6" d="M39.84,101.89h0c-1.48,3.98-3.23,8.11-4.3,10.95h0c25.75-5.58,52.49-8.73,75.32-11.15-1.45-3.18-5.32-10.98-8.89-18.64-21.35,4.16-42.05,10.43-62.11,18.84"/>
  <path class="cls-9" d="M44.36,92.61c1.42-1.08,2.9-2.05,4.39-3.03,14.49-9.15,29.88-17.09,44.88-25.35l-.12,.36c-4.99-10.79-10.72-22.31-15.96-33v-.03c-.06-.08-.1-.15-.14-.21-.16-.26-.36-.49-.59-.69-.21-.18-.45-.27-.72-.26-.28,.03-.51,.15-.71,.35-.22,.21-.41,.46-.55,.73-.04,.07-.07,.14-.11,.21-7.32,14.54-14.91,29.18-22.07,43.81-6,12.31-12.01,24.63-17.14,37.34,3.85-10.24,8.48-20.24,13.13-30.14,8.13-17.27,16.85-34.26,25.46-51.29,.04-.08,.08-.16,.13-.24,.38-.68,.97-1.36,1.8-1.42,.43-.03,.84,.14,1.17,.4,.37,.3,.65,.68,.88,1.09l.02,.03,.02,.05,.03,.06,.06,.11c5.21,10.73,10.97,22.26,15.89,33.12-11.47,6.17-23.27,12.37-34.62,18.75-5.08,2.93-10.35,5.84-15.12,9.25"/>
  <path class="cls-9" d="M40.13,101.95c13.06-5.28,26.55-10.14,40.11-13.97,7.11-2.04,14.37-3.9,21.66-5.19l.2-.03c3.34,7.21,7.23,14.97,10.44,22.2,3.35,7.28,7.02,14.72,10.17,22.09-3.28-7.22-7.12-14.76-10.52-21.92-3.22-7.02-7.21-14.94-10.49-21.96l.28,.15c-6.27,1.13-12.54,2.68-18.7,4.33-14.56,3.99-29.03,8.98-43.15,14.3"/>
  <path class="cls-5" d="M52.03,109.55c-5.17,13.18-9.83,25.84-11.42,30.18l.3,.02,10.38-6.42s.35-13.89,.88-15.97c.22-.87,.8-4.14,1.57-8.1l-1.71,.29Z"/>
  <path class="cls-2" d="M97.1,103.21h.01c2.99,10.04,6.08,20.27,6.43,30.81l7.9,5.37c-2.75-7.88-8.41-22.31-14-36.21l-.33,.03Z"/>
</svg>