<svg role="img" viewBox="0 0 500 500" xmlns="http://www.w3.org/2000/svg" id="Protools--Streamline-Simple-Icons" height="500" width="500">
  <desc>
    Protools Streamline Icon: https://streamlinehq.com
  </desc>
  <title>Pro Tools</title>
  <path d="M10.520833333333332 321.91666666666663Q5.625 304.7916666666667 2.916666666666667 286.7083333333333 0.20833333333333331 268.5625 0.20833333333333331 250q0 -51.875 19.583333333333332 -97.35416666666666 19.583333333333332 -45.5 53.58333333333333 -79.24999999999999Q107.39583333333333 39.62499999999999 152.89583333333334 19.541666666666664 198.39583333333331 0 250.25 0q51.354166666666664 0 96.875 19.583333333333332 45.47916666666666 20.041666666666664 79.47916666666666 53.8125 34.02083333333333 33.75 53.58333333333333 79.24999999999999 19.583333333333332 45.5 19.583333333333332 97.35416666666666 0 18.104166666666664 -2.458333333333333 35.70833333333333 -2.458333333333333 17.625 -7.333333333333332 34.24999999999999 4.375 0.9791666666666666 7.083333333333333 1.4583333333333335l2.7083333333333335 0.5 -28.395833333333332 71.43749999999999 -3.9166666666666665 -0.25 -11.25 -2.208333333333333Q439.5833333333333 415.3541666666667 417.0833333333333 435.41666666666663q-22.020833333333332 20.5625 -48.4375 34.75 -26.416666666666664 14.166666666666666 -56.75 22 -29.854166666666664 7.833333333333333 -61.666666666666664 7.833333333333333 -32.291666666666664 0 -62.604166666666664 -7.833333333333333 -29.854166666666664 -7.8125 -56.25 -22.25 -26.437499999999996 -14.437499999999998 -48.958333333333336 -34.49999999999999 -22.5 -20.062499999999996 -39.12499999999999 -45 -5.874999999999999 1.9583333333333333 -9.041666666666666 2.4375l-3.1874999999999996 0.5 -30.833333333333332 -70.45833333333333 2.458333333333333 0.25 7.833333333333333 -1.2291666666666665zM473.8333333333333 250q0 -46.45833333333333 -17.625 -87.08333333333333 -17.604166666666664 -40.625 -47.9375 -70.93749999999999 -30.333333333333332 -30.333333333333332 -71.43749999999999 -47.9375 -40.604166666666664 -17.625 -86.58333333333333 -17.625 -46.479166666666664 0 -87.08333333333333 17.625 -41.104166666666664 17.604166666666664 -71.43749999999999 47.91666666666666Q61.39583333333333 122.33333333333333 43.791666666666664 162.91666666666666 26.166666666666664 203.54166666666666 26.166666666666664 250q0 15.645833333333332 2.208333333333333 31.0625 2.208333333333333 15.416666666666666 6.604166666666666 30.083333333333332 18.583333333333332 -10.75 42.08333333333333 -41.08333333333333 23.479166666666664 -30.333333333333332 37.666666666666664 -60.666666666666664 7.333333333333332 -15.166666666666666 19.083333333333332 -33.27083333333333 11.25 -18.104166666666664 27.875 -33.99999999999999 16.645833333333332 -15.895833333333332 38.64583333333333 -26.166666666666664 22.020833333333332 -10.770833333333332 49.916666666666664 -10.770833333333332 27.395833333333332 0 50.39583333333333 12.229166666666666 22.979166666666664 12.229166666666666 39.854166666666664 28.125 16.875 15.916666666666666 27.166666666666668 31.083333333333332 10.75 15.145833333333332 13.6875 20.541666666666664 3.4375 5.874999999999999 9.791666666666666 19.583333333333332 6.854166666666667 13.1875 15.166666666666666 28.354166666666664 8.333333333333334 15.166666666666666 17.124999999999996 29.854166666666664 8.8125 14.166666666666666 16.625 21.520833333333332 5.395833333333333 5.375 11.749999999999998 9.291666666666666 6.354166666666666 3.9166666666666665 12.708333333333332 6.854166666666667 4.416666666666666 -15.166666666666666 6.875 -30.833333333333332 2.4375 -15.645833333333332 2.4375 -31.791666666666664zM250.25 473.5833333333333q27.875 0 53.8125 -6.354166666666666 26.416666666666664 -6.875 49.64583333333333 -19.083333333333332 23.25 -12.229166666666666 42.8125 -29.374999999999996 19.583333333333332 -17.104166666666664 34.75 -38.125 -19.583333333333332 -10.291666666666666 -45.27083333333333 -34.27083333333333 -25.6875 -23.95833333333333 -52.08333333333333 -69.95833333333333 -2.958333333333333 -4.895833333333333 -10.291666666666666 -19.583333333333332 -7.333333333333332 -14.666666666666664 -17.854166666666664 -30.3125 -10.520833333333332 -15.666666666666666 -23.229166666666664 -27.895833333333332t-26.416666666666664 -12.229166666666666q-14.1875 0 -28.874999999999996 13.208333333333332 -14.666666666666664 12.708333333333332 -27.145833333333332 28.874999999999996 -12.499999999999998 16.145833333333332 -21.291666666666664 31.312499999999996 -8.8125 14.666666666666664 -11.25 19.083333333333332 -24.458333333333332 43.041666666666664 -51.604166666666664 66.77083333333333 -27.166666666666668 23.729166666666664 -47.70833333333333 34.49999999999999 15.166666666666666 21.041666666666664 34.729166666666664 38.14583333333333 20.062499999999996 17.625 43.3125 29.854166666666664 23.229166666666664 12.229166666666666 49.166666666666664 18.583333333333332 26.416666666666664 6.854166666666667 54.791666666666664 6.854166666666667z" fill="#000000" stroke-width="20.8333"></path>
</svg>