<?xml version="1.0" encoding="UTF-8" standalone="no"?>
<svg
   id="Layer_2"
   viewBox="0 0 547.07881 600.2356"
   version="1.1"
   width="547.0788"
   height="600.2356"
   xmlns="http://www.w3.org/2000/svg"
   xmlns:svg="http://www.w3.org/2000/svg">
  <defs
     id="defs1">
    <style
       id="style1">      .cls-1 {        fill: #fff;      }    </style>
  </defs>
  <g
     id="Layer_1-2"
     data-name="Layer_1"
     transform="translate(255.30534,280.11)">
    <g
       id="g11">
      <path
         class="cls-1"
         d="m 291.47343,22.740669 c -0.6,122.550001 -74.55,224.400001 -181.2,263.250001 -18.900003,6.9 -38.400003,11.7 -58.350003,13.95 -5.4,0.6 -10.95,1.05 -16.35,1.8 -0.9,0 -2.1,0.45 -2.7,1.05 -9.9,8.25 -21.9,12.15 -34.2000002,14.85 -11.8499998,2.55 -23.6999998,3.6 -35.8499998,0.9 -15.3,-3.3 -25.05,-12.6 -30.15,-27.15 -0.75,-2.4 -1.95,-3.6 -4.35,-4.5 -89.699997,-31.65 -157.199997,-108.3 -177.299997,-201.150001 -3.45,-16.2 -5.7,-32.55 -6.15,-49.05 -2.4,-72.15 19.35,-136.2 66.15,-191.099999 40.35,-47.55 91.649997,-77.7 152.849997,-90.45 15.75,-3.3 31.7999998,-4.95 48,-5.4 1.95,0 2.85,-1.05 3.75,-2.55 4.95,-7.5 9.6,-15.15 15,-22.35 4.95,-6.6 6.15,-6.45 12,-0.45 7.35,7.8 13.2,16.65 18.3,25.95 1.2,2.1 2.7,3 4.95,3.45 58.200003,10.5 107.700003,37.35 148.650003,79.8 35.4,36.75 58.8,80.249999 70.05,130.199999 2.85,12.9 4.35,26.1 6,39.1500003 0.9,7.6499997 1.05,15.2999997 1.2,19.4999997 z M 48.923427,272.19067 c 111.450003,-12.45 216.000003,-111.15 215.100003,-248.100001 -0.75,-131.099999 -97.65,-220.499999 -188.250003,-239.549999 0,0.75 0,1.35 0.15,2.1 1.5,9.6 3.6,19.05 4.65,28.65 1.8,16.65 0.75,33.3 -2.7,49.65 -8.25,39.449999 -27.9,71.999999 -59.25,97.349999 -3.6,2.85 -4.05,5.55 -3.45,9.6 2.25,16.5 4.5,32.8500003 6.6,49.35 0.3,2.4 1.05,3.3 3.6,3.3 8.55,-0.3 16.95,0 25.2,1.8 26.7,6 45.75,21.9 55.800003,47.1 6.6,16.2 5.55,33.600001 1.35,50.250001 -7.950003,31.65 -28.050003,53.1 -57.450003,66.15 -5.1,2.25 -5.25,2.1 -4.65,7.65 1.2,12 2.85,23.85 3.75,35.85 0.6,8.55 0.6,17.25 0.6,25.95 0,4.2 -0.75,8.4 -1.05,12.9 z m -48.3000002,-494.1 c -1.8,0 -3.45,-0.15 -4.95,0 -8.9999998,1.35 -17.9999998,2.25 -26.8499998,4.2 -61.8,13.05 -111.449997,45.3 -148.799997,96 -34.2,46.649999 -49.95,99.299999 -47.85,157.349999 0.6,16.5 2.7,32.7 6.6,48.6 12.9,52.800001 39.9,96.750001 81.15,132.000001 20.85,17.85 44.249997,31.65 69.899997,41.7 1.8,0.75 3,1.05 4.05,-1.2 6.75,-13.05 18,-18.9 33,-17.4 13.5,1.35 22.65,8.7 26.2499998,21.6 0.9,3.15 1.05,6.45 1.2,9.6 0,1.8 0.6,3 2.55,3 12,0 23.8500002,0 35.8500002,0.3 2.55,0 3.15,-1.2 3.6,-3.45 1.95,-10.8 2.25,-21.45 1.05,-32.25 -1.35,-13.5 -2.85,-27.15 -4.35,-40.65 -0.15,-1.8 -1.05,-2.1 -2.7,-1.8 -1.95,0.45 -3.9,0.9 -6,1.2 -16.9500002,3.15 -33.9000002,3.75 -50.7,-0.6 -26.85,-6.9 -47.25,-22.95 -63.6,-44.7 -16.349997,-21.9 -22.049997,-47.25 -22.349997,-73.950001 0,-18.3 3.9,-35.55 12,-52.05 13.949997,-28.6499997 34.049997,-52.5 58.649997,-72.6 10.5,-8.55 21.6,-16.35 32.3999998,-24.6 1.05,-0.75 2.25,-2.4 2.1,-3.6 -0.6,-6 -1.8,-11.85 -2.55,-17.85 -1.1999998,-10.049999 -2.9999998,-20.249999 -3.1499998,-30.299999 -0.15,-12.9 0.3,-25.95 1.8,-38.85 1.4999998,-14.4 4.1999998,-28.65 6.7499998,-42.75 1.05,-5.7 3,-11.1 4.65,-17.1 z m 0.3,198.149999 c -1.05,0.45 -1.65,0.75 -2.1,1.05 -10.1999998,7.8 -20.6999998,15.3000003 -30.5999998,23.55000025 -16.05,13.79999975 -31.05,28.64999975 -42.75,46.64999975 -12.45,19.05 -19.5,39.75 -15.3,62.850001 5.1,28.8 19.95,51 45.75,65.25 23.25,12.9 47.8499998,12.15 72.75,6 0.6,-0.15 1.5,-1.8 1.35,-2.55 -2.4,-15.75 -5.1,-31.35 -7.65,-46.95 -3.3,-20.55 -6.45,-41.250001 -9.45,-61.950001 -0.45,-2.85 -1.35,-3.45 -3.9000002,-2.7 -7.65,2.25 -14.4,6 -20.8499998,10.8 -17.7,13.35 -24,40.650001 -9.15,60.600001 3.3,4.35 6.45,8.7 9.6,13.2 0.9,1.35 1.05,3.3 1.4999998,4.95 -1.9499998,0 -3.8999998,0 -5.8499998,0.15 -0.3,0 -0.6,-0.15 -0.9,-0.3 -5.7,-3.9 -11.7,-7.2 -16.8,-11.7 -11.55,-10.35 -15.6,-24.3 -16.8,-39.15 -1.5,-18.000001 3.6,-34.350001 14.4,-48.750001 10.35,-13.65 24.3,-22.5 40.0499998,-28.65 1.95,-0.75 2.85,-1.35 2.55,-3.9 -1.5,-11.4 -2.55,-22.7999997 -3.9,-34.3499997 -0.6,-4.5000003 -1.35,-9.0000003 -2.1,-13.9500003 z m 7.95,-61.65 c 0,0 1.05,0 1.05,-0.15 11.2500002,-8.55 22.8000002,-16.949999 31.2000002,-28.349999 18.9,-25.5 25.05,-54 17.4,-85.05 -1.35,-5.25 -3.45,-10.5 -6.15,-15.15 -3.15,-5.55 -8.25,-6.15 -13.65,-2.85 -0.9,0.6 -1.8,1.2 -2.7,1.95 -5.55,4.8 -10.2,10.2 -13.8,16.65 -10.8,19.95 -14.5500002,41.7 -15.6000002,63.9 -0.6,12.9 0.6,25.95 1.2,38.849999 0,3.3 0.75,6.6 1.05,10.2 z m 20.1000002,150.6 c 4.95,37.650001 9.75,74.400001 14.55,111.600001 9,-3.6 16.95,-8.25 23.7,-14.85 13.5,-13.2 21.15,-29.1 17.85,-48.15 -4.05,-24.150001 -18.15,-40.050001 -42.3,-46.200001 -4.5,-1.05 -9.15,-1.65 -13.8,-2.4 z M 3.0234268,302.79067 c 0,0 0,-0.6 -0.15,-0.9 -6.6,-0.75 -13.1999998,-1.5 -19.7999998,-2.1 -1.05,0 -2.1,0.9 -3.15,1.35 0.75,0.9 1.35,2.55 2.25,2.7 4.05,0.6 8.2499998,1.05 12.2999998,0.75 2.85,0 5.7,-1.35 8.55,-1.95 z"
         id="path11"
         style="fill:#7826e7;fill-opacity:1;stroke-width:15" />
    </g>
  </g>
</svg>
