<svg role="img" viewBox="0 0 500 500" xmlns="http://www.w3.org/2000/svg" id="Vectorworks--Streamline-Simple-Icons" height="500" width="500">
  <desc>
    Vectorworks Streamline Icon: https://streamlinehq.com
  </desc>
  <title>Vectorworks</title>
  <path d="M250 0C112.5 0 0 112.5 0 250s112.5 250 250 250 250 -112.5 250 -250S387.5 0 250 0zm0 473.4375c-123.43749999999999 0 -223.43749999999997 -99.99999999999999 -223.43749999999997 -223.43749999999997S126.5625 26.562499999999996 250 26.562499999999996 473.4375 126.5625 473.4375 250 373.4375 473.4375 250 473.4375zM182.8125 156.25h-46.875c-3.1249999999999996 0 -4.333333333333333 1.7916666666666665 -3.1249999999999996 4.6875l92.18749999999999 221.875c0.8333333333333333 2.0416666666666665 3.1249999999999996 4.6875 6.249999999999999 4.6875h40.625c3.1249999999999996 0 4.291666666666666 -1.7916666666666665 3.1249999999999996 -4.6875l-90.62499999999999 -225c-0.5833333333333333 -1.4583333333333335 -0.7291666666666667 -1.5624999999999998 -1.5624999999999998 -1.5624999999999998zm181.24999999999997 0h-46.875c-1.5624999999999998 0 -2.7083333333333335 0.47916666666666663 -3.1249999999999996 1.5624999999999998L278.125 246.87499999999997a12.499999999999998 12.499999999999998 0 0 0 0 7.8125l21.875 53.12499999999999c1.5624999999999998 3.1249999999999996 4.6875 3.1249999999999996 6.249999999999999 0l60.93749999999999 -146.875c1.1875 -2.8958333333333335 0 -4.6875 -3.1249999999999996 -4.6875z" fill="#000000" stroke-width="20.8333"></path>
</svg>